#!OML:ASF E:\Style4\Style4.ASF
:FULLY-SPECIFIED
:DEGREES
1170
root -0.0419364 17.8875 -1.8399 -0.196964 -0.913165 0.647335
lowerback 4.83195 3.48064 -0.918056
upperback 0.278891 4.53645 -2.07584
thorax -2.31826 2.26237 -1.92415
lowerneck -5.11426 -6.03233 -6.77424
upperneck 13.9118 -8.97206 10.2661
head 5.79879 -4.07719 3.72067
rclavicle -3.07122e-014 -9.54166e-015
rhumerus 32.5217 11.2427 -58.9967
rradius 85.5508
rwrist -35.81
rhand -21.7452 30.7694
rfingers 7.12502
rthumb 4.65482 0.840541
lclavicle -3.07122e-014 -9.54166e-015
lhumerus -42.8978 -44.1205 108.443
lradius 79.9385
lwrist 22.9313
lhand -13.9216 28.4412
lfingers 7.12502
lthumb 12.2047 58.0651
rfemur -9.74439 0.768625 17.7949
rtibia 27.7882
rfoot -16.4206 -14.2657
rtoes -13.0582
lfemur -8.33619 -4.37051 -19.8082
ltibia 27.0182
lfoot -18.6263 10.4667
ltoes -15.4149
1171
root -0.0500171 17.885 -1.83995 -0.202189 -1.00374 0.642614
lowerback 4.80787 3.56389 -0.874254
upperback 0.280063 4.64834 -2.1667
thorax -2.28982 2.31766 -2.047
lowerneck -5.06333 -6.10992 -6.80749
upperneck 13.9505 -9.11244 10.4721
head 5.82573 -4.13472 3.78133
rclavicle -4.2192e-014 1.90833e-014
rhumerus 33.6805 13.1963 -57.6182
rradius 85.7406
rwrist -35.4319
rhand -21.3135 30.7171
rfingers 7.12502
rthumb 5.07161 0.797769
lclavicle -4.2192e-014 1.90833e-014
lhumerus -42.8155 -44.235 108.409
lradius 79.9143
lwrist 22.9812
lhand -13.8908 28.3645
lfingers 7.12502
lthumb 12.2344 57.9867
rfemur -9.84821 0.931808 17.8241
rtibia 27.8385
rfoot -16.4483 -14.4648
rtoes -13.9078
lfemur -8.3591 -4.3063 -19.772
ltibia 27.0715
lfoot -18.643 10.4385
ltoes -15.3016
1172
root -0.0570866 17.8844 -1.83942 -0.223479 -1.07287 0.705285
lowerback 4.80576 3.65244 -0.860811
upperback 0.289224 4.76447 -2.29653
thorax -2.26393 2.37527 -2.19438
lowerneck -5.07427 -6.21133 -6.86577
upperneck 14.0424 -9.2941 10.7332
head 5.8881 -4.20681 3.85828
rclavicle -8.97016e-015 7.95139e-015
rhumerus 34.8515 15.1703 -56.0904
rradius 86.0349
rwrist -35.1486
rhand -21.1548 30.1987
rfingers 7.12502
rthumb 5.22488 0.283136
lclavicle -8.97016e-015 7.95139e-015
lhumerus -42.7503 -44.379 108.366
lradius 79.8982
lwrist 22.9302
lhand -13.6861 28.3216
lfingers 7.12502
lthumb 12.4318 57.9319
rfemur -9.8996 1.08623 17.7788
rtibia 27.8713
rfoot -16.4387 -14.5793
rtoes -14.2434
lfemur -8.35841 -4.32254 -19.8269
ltibia 27.115
lfoot -18.6357 10.5356
ltoes -15.2507
1173
root -0.0637526 17.8819 -1.83881 -0.291854 -1.15085 0.765607
lowerback 4.84379 3.74877 -0.821587
upperback 0.3198 4.8918 -2.43291
thorax -2.23471 2.43836 -2.36539
lowerneck -5.1039 -6.31561 -6.91281
upperneck 14.1186 -9.47943 10.9951
head 5.94941 -4.27956 3.93266
rclavicle -7.95139e-015 1.19271e-014
rhumerus 36.0321 17.1273 -54.4566
rradius 86.3434
rwrist -35.0608
rhand -21.1488 29.6491
rfingers 7.12502
rthumb 5.23063 -0.266349
lclavicle -7.95139e-015 1.19271e-014
lhumerus -42.6625 -44.6102 108.306
lradius 79.9053
lwrist 22.9994
lhand -13.5836 28.404
lfingers 7.12502
lthumb 12.5306 58.0083
rfemur -9.85715 1.26187 17.7475
rtibia 27.9096
rfoot -16.4655 -14.6604
rtoes -13.9862
lfemur -8.29153 -4.34312 -19.8836
ltibia 27.1374
lfoot -18.7289 10.6165
ltoes -15.0975
1174
root -0.0692865 17.8798 -1.83605 -0.320788 -1.21098 0.826773
lowerback 4.8025 3.82399 -0.779848
upperback 0.351573 4.99349 -2.55842
thorax -2.16081 2.48912 -2.51881
lowerneck -5.10396 -6.3981 -6.94569
upperneck 14.1233 -9.62353 11.208
head 5.97683 -4.33732 3.9935
rclavicle 1.13307e-014 5.56597e-015
rhumerus 37.2979 19.0786 -52.7565
rradius 86.5949
rwrist -34.9223
rhand -20.6215 29.3168
rfingers 7.12502
rthumb 5.73978 -0.5855
lclavicle 1.13307e-014 5.56597e-015
lhumerus -42.5345 -44.8088 108.234
lradius 79.9604
lwrist 23.119
lhand -13.6858 28.4396
lfingers 7.12502
lthumb 12.432 58.0499
rfemur -9.8697 1.36749 17.7084
rtibia 28.0015
rfoot -16.4384 -14.7305
rtoes -14.1815
lfemur -8.24584 -4.31898 -19.9427
ltibia 27.1419
lfoot -18.7679 10.6569
ltoes -14.9521
1175
root -0.0744332 17.8778 -1.83576 -0.33013 -1.26319 0.891991
lowerback 4.78272 3.93354 -0.714569
upperback 0.380539 5.14122 -2.71131
thorax -2.09483 2.56272 -2.71772
lowerneck -5.12219 -6.50887 -6.90274
upperneck 14.1125 -9.81147 11.4165
head 6.0035 -4.41227 4.03594
rclavicle 3.24019e-014 -9.54166e-015
rhumerus 38.6049 20.9101 -51.0347
rradius 86.7196
rwrist -34.6299
rhand -19.7615 29.352
rfingers 7.12502
rthumb 6.5701 -0.526122
lclavicle 3.24019e-014 -9.54166e-015
lhumerus -42.4083 -45.0705 108.148
lradius 79.9712
lwrist 23.0343
lhand -13.7312 28.3836
lfingers 7.12502
lthumb 12.3883 57.9965
rfemur -9.942 1.41905 17.6469
rtibia 28.1272
rfoot -16.5115 -14.6844
rtoes -14.2168
lfemur -8.22832 -4.32811 -20.0078
ltibia 27.1528
lfoot -18.8149 10.6421
ltoes -14.4309
1176
root -0.0801544 17.8747 -1.83417 -0.348034 -1.31169 0.956338
lowerback 4.77355 4.0141 -0.693125
upperback 0.393267 5.2483 -2.81465
thorax -2.0607 2.61624 -2.84065
lowerneck -5.15473 -6.58661 -6.91904
upperneck 14.1784 -9.94962 11.5899
head 6.05318 -4.4659 4.08083
rclavicle -3.23025e-015 1.59028e-015
rhumerus 40.0496 22.8718 -49.1808
rradius 86.7594
rwrist -34.274
rhand -19.136 29.3682
rfingers 7.12502
rthumb 7.17391 -0.490183
lclavicle -3.23025e-015 1.59028e-015
lhumerus -42.2501 -45.1579 108.091
lradius 79.9097
lwrist 22.8601
lhand -13.6149 28.2737
lfingers 7.12502
lthumb 12.5004 57.8798
rfemur -10.0072 1.44904 17.5892
rtibia 28.2703
rfoot -16.6116 -14.6463
rtoes -14.0264
lfemur -8.19903 -4.34212 -20.0689
ltibia 27.1677
lfoot -18.8673 10.6417
ltoes -14.1922
